<svg width="16" height="16" viewBox="0 0 16 16" fill="none" xmlns="http://www.w3.org/2000/svg">
<path d="M9.87052 16H6.12774C3.77964 16 1.87097 14.2912 1.87097 12.1889V2.13605C1.87097 1.88475 2.10518 1.67506 2.38586 1.67506H13.6133C13.894 1.67506 14.1282 1.88475 14.1282 2.13605V12.1881C14.1282 14.2903 12.2195 15.9992 9.87142 15.9992L9.87052 16ZM2.90075 2.59704V12.1881C2.90075 13.7799 4.35066 15.078 6.12864 15.078H9.87142C11.6494 15.078 13.0993 13.7799 13.0993 12.1881L13.0984 2.59704H2.90075Z" fill="black"/>
<path d="M15.4842 2.59704H0.51489C0.234204 2.59704 0 2.38735 0 2.13605C0 1.88475 0.234204 1.67506 0.51489 1.67506H15.4851C15.7658 1.67506 16 1.88475 16 2.13605C16 2.38735 15.7658 2.59704 15.4851 2.59704H15.4842Z" fill="black"/>
<path d="M10.8064 0.921971H5.19269C4.912 0.921971 4.6778 0.712286 4.6778 0.460986C4.6778 0.209685 4.912 0 5.19269 0H10.8064C11.0871 0 11.3213 0.209685 11.3213 0.460986C11.3213 0.712286 11.0871 0.921971 10.8064 0.921971Z" fill="black"/>
<path d="M6.1286 11.3926C5.84791 11.3926 5.61371 11.1829 5.61371 10.9316V5.90557C5.61371 5.65427 5.84791 5.44458 6.1286 5.44458C6.40928 5.44458 6.64349 5.65427 6.64349 5.90557V10.9316C6.64349 11.1829 6.40928 11.3926 6.1286 11.3926Z" fill="black"/>
<path d="M9.87048 11.3926C9.5898 11.3926 9.35559 11.1829 9.35559 10.9316V5.90557C9.35559 5.65427 9.5898 5.44458 9.87048 5.44458C10.1512 5.44458 10.3854 5.65427 10.3854 5.90557V10.9316C10.3854 11.1829 10.1512 11.3926 9.87048 11.3926Z" fill="black"/>
<path d="M7.99957 11.3926C7.71888 11.3926 7.48468 11.1829 7.48468 10.9316V5.90557C7.48468 5.65427 7.71888 5.44458 7.99957 5.44458C8.28026 5.44458 8.51446 5.65427 8.51446 5.90557V10.9316C8.51446 11.1829 8.28026 11.3926 7.99957 11.3926Z" fill="black"/>
</svg>
